<mxfile host="app.diagrams.net" agent="Mozilla/5.0 (Macintosh; Intel Mac OS X 10_15_7) AppleWebKit/537.36 (KHTML, like Gecko) Chrome/131.0.0.0 Safari/537.36" version="24.9.2">
  <diagram name="PÃ¡gina-1" id="Mvvf3IxWTd9VB3cEipE-">
    <mxGraphModel dx="2020" dy="726" grid="1" gridSize="10" guides="1" tooltips="1" connect="1" arrows="1" fold="1" page="1" pageScale="1" pageWidth="827" pageHeight="1169" math="0" shadow="0">
      <root>
        <mxCell id="0" />
        <mxCell id="1" parent="0" />
        <mxCell id="cKL9aAtVHvwB-jlawNwa-2" value="" style="sketch=0;points=[[0,0,0],[0.25,0,0],[0.5,0,0],[0.75,0,0],[1,0,0],[0,1,0],[0.25,1,0],[0.5,1,0],[0.75,1,0],[1,1,0],[0,0.25,0],[0,0.5,0],[0,0.75,0],[1,0.25,0],[1,0.5,0],[1,0.75,0]];outlineConnect=0;fontColor=#232F3E;fillColor=#8C4FFF;strokeColor=#ffffff;dashed=0;verticalLabelPosition=bottom;verticalAlign=top;align=center;html=1;fontSize=12;fontStyle=0;aspect=fixed;shape=mxgraph.aws4.resourceIcon;resIcon=mxgraph.aws4.cloudfront;" vertex="1" parent="1">
          <mxGeometry x="170" y="170" width="78" height="78" as="geometry" />
        </mxCell>
        <mxCell id="cKL9aAtVHvwB-jlawNwa-3" value="" style="sketch=0;outlineConnect=0;fontColor=#232F3E;gradientColor=none;fillColor=#7AA116;strokeColor=none;dashed=0;verticalLabelPosition=bottom;verticalAlign=top;align=center;html=1;fontSize=12;fontStyle=0;aspect=fixed;pointerEvents=1;shape=mxgraph.aws4.bucket;" vertex="1" parent="1">
          <mxGeometry x="171" y="320" width="75" height="78" as="geometry" />
        </mxCell>
        <mxCell id="cKL9aAtVHvwB-jlawNwa-4" value="" style="sketch=0;points=[[0,0,0],[0.25,0,0],[0.5,0,0],[0.75,0,0],[1,0,0],[0,1,0],[0.25,1,0],[0.5,1,0],[0.75,1,0],[1,1,0],[0,0.25,0],[0,0.5,0],[0,0.75,0],[1,0.25,0],[1,0.5,0],[1,0.75,0]];outlineConnect=0;fontColor=#232F3E;fillColor=#8C4FFF;strokeColor=#ffffff;dashed=0;verticalLabelPosition=bottom;verticalAlign=top;align=center;html=1;fontSize=12;fontStyle=0;aspect=fixed;shape=mxgraph.aws4.resourceIcon;resIcon=mxgraph.aws4.api_gateway;" vertex="1" parent="1">
          <mxGeometry x="168" y="450" width="78" height="78" as="geometry" />
        </mxCell>
        <mxCell id="cKL9aAtVHvwB-jlawNwa-5" value="" style="sketch=0;points=[[0,0,0],[0.25,0,0],[0.5,0,0],[0.75,0,0],[1,0,0],[0,1,0],[0.25,1,0],[0.5,1,0],[0.75,1,0],[1,1,0],[0,0.25,0],[0,0.5,0],[0,0.75,0],[1,0.25,0],[1,0.5,0],[1,0.75,0]];outlineConnect=0;fontColor=#232F3E;fillColor=#ED7100;strokeColor=#ffffff;dashed=0;verticalLabelPosition=bottom;verticalAlign=top;align=center;html=1;fontSize=12;fontStyle=0;aspect=fixed;shape=mxgraph.aws4.resourceIcon;resIcon=mxgraph.aws4.lambda;" vertex="1" parent="1">
          <mxGeometry x="120" y="630" width="78" height="78" as="geometry" />
        </mxCell>
        <mxCell id="cKL9aAtVHvwB-jlawNwa-6" value="" style="sketch=0;points=[[0,0,0],[0.25,0,0],[0.5,0,0],[0.75,0,0],[1,0,0],[0,1,0],[0.25,1,0],[0.5,1,0],[0.75,1,0],[1,1,0],[0,0.25,0],[0,0.5,0],[0,0.75,0],[1,0.25,0],[1,0.5,0],[1,0.75,0]];outlineConnect=0;fontColor=#232F3E;fillColor=#C925D1;strokeColor=#ffffff;dashed=0;verticalLabelPosition=bottom;verticalAlign=top;align=center;html=1;fontSize=12;fontStyle=0;aspect=fixed;shape=mxgraph.aws4.resourceIcon;resIcon=mxgraph.aws4.dynamodb;" vertex="1" parent="1">
          <mxGeometry x="220" y="780" width="78" height="78" as="geometry" />
        </mxCell>
        <mxCell id="cKL9aAtVHvwB-jlawNwa-7" value="" style="endArrow=none;html=1;rounded=0;exitX=0.5;exitY=0;exitDx=0;exitDy=0;exitPerimeter=0;entryX=0.353;entryY=0.934;entryDx=0;entryDy=0;entryPerimeter=0;" edge="1" parent="1" source="cKL9aAtVHvwB-jlawNwa-2" target="cKL9aAtVHvwB-jlawNwa-11">
          <mxGeometry width="50" height="50" relative="1" as="geometry">
            <mxPoint x="390" y="360" as="sourcePoint" />
            <mxPoint x="313.5454545454545" y="94.57792207792227" as="targetPoint" />
          </mxGeometry>
        </mxCell>
        <mxCell id="cKL9aAtVHvwB-jlawNwa-9" value="" style="endArrow=none;html=1;rounded=0;exitX=0.5;exitY=0;exitDx=0;exitDy=0;exitPerimeter=0;" edge="1" parent="1" source="cKL9aAtVHvwB-jlawNwa-4" target="cKL9aAtVHvwB-jlawNwa-3">
          <mxGeometry width="50" height="50" relative="1" as="geometry">
            <mxPoint x="160" y="450" as="sourcePoint" />
            <mxPoint x="210" y="400" as="targetPoint" />
          </mxGeometry>
        </mxCell>
        <mxCell id="cKL9aAtVHvwB-jlawNwa-10" value="" style="endArrow=none;html=1;rounded=0;exitX=0.5;exitY=1;exitDx=0;exitDy=0;exitPerimeter=0;entryX=0.5;entryY=0;entryDx=0;entryDy=0;entryPerimeter=0;" edge="1" parent="1" source="cKL9aAtVHvwB-jlawNwa-4" target="cKL9aAtVHvwB-jlawNwa-5">
          <mxGeometry width="50" height="50" relative="1" as="geometry">
            <mxPoint x="390" y="360" as="sourcePoint" />
            <mxPoint x="440" y="310" as="targetPoint" />
          </mxGeometry>
        </mxCell>
        <mxCell id="cKL9aAtVHvwB-jlawNwa-11" value="" style="image;points=[];aspect=fixed;html=1;align=center;shadow=0;dashed=0;image=img/lib/allied_telesis/computer_and_terminals/Personal_Computer.svg;" vertex="1" parent="1">
          <mxGeometry x="190" y="30" width="45.6" height="61.800000000000004" as="geometry" />
        </mxCell>
        <mxCell id="cKL9aAtVHvwB-jlawNwa-12" value="" style="endArrow=none;html=1;rounded=0;entryX=0.5;entryY=1;entryDx=0;entryDy=0;entryPerimeter=0;exitX=0.5;exitY=0;exitDx=0;exitDy=0;exitPerimeter=0;" edge="1" parent="1" source="cKL9aAtVHvwB-jlawNwa-6" target="cKL9aAtVHvwB-jlawNwa-5">
          <mxGeometry width="50" height="50" relative="1" as="geometry">
            <mxPoint x="50" y="780" as="sourcePoint" />
            <mxPoint x="100" y="730" as="targetPoint" />
          </mxGeometry>
        </mxCell>
        <mxCell id="cKL9aAtVHvwB-jlawNwa-16" value="" style="sketch=0;points=[[0,0,0],[0.25,0,0],[0.5,0,0],[0.75,0,0],[1,0,0],[0,1,0],[0.25,1,0],[0.5,1,0],[0.75,1,0],[1,1,0],[0,0.25,0],[0,0.5,0],[0,0.75,0],[1,0.25,0],[1,0.5,0],[1,0.75,0]];outlineConnect=0;fontColor=#232F3E;fillColor=#ED7100;strokeColor=#ffffff;dashed=0;verticalLabelPosition=bottom;verticalAlign=top;align=center;html=1;fontSize=12;fontStyle=0;aspect=fixed;shape=mxgraph.aws4.resourceIcon;resIcon=mxgraph.aws4.lambda;" vertex="1" parent="1">
          <mxGeometry x="335" y="630" width="78" height="78" as="geometry" />
        </mxCell>
        <mxCell id="cKL9aAtVHvwB-jlawNwa-19" value="" style="endArrow=none;html=1;rounded=0;entryX=0.5;entryY=0;entryDx=0;entryDy=0;entryPerimeter=0;exitX=0.5;exitY=1;exitDx=0;exitDy=0;exitPerimeter=0;" edge="1" parent="1" source="cKL9aAtVHvwB-jlawNwa-4" target="cKL9aAtVHvwB-jlawNwa-16">
          <mxGeometry width="50" height="50" relative="1" as="geometry">
            <mxPoint x="210" y="560" as="sourcePoint" />
            <mxPoint x="169" y="640" as="targetPoint" />
          </mxGeometry>
        </mxCell>
        <mxCell id="cKL9aAtVHvwB-jlawNwa-20" value="" style="endArrow=none;html=1;rounded=0;exitX=0.5;exitY=0;exitDx=0;exitDy=0;exitPerimeter=0;entryX=0.5;entryY=1;entryDx=0;entryDy=0;entryPerimeter=0;" edge="1" parent="1" source="cKL9aAtVHvwB-jlawNwa-6" target="cKL9aAtVHvwB-jlawNwa-16">
          <mxGeometry width="50" height="50" relative="1" as="geometry">
            <mxPoint x="390" y="740" as="sourcePoint" />
            <mxPoint x="440" y="690" as="targetPoint" />
          </mxGeometry>
        </mxCell>
        <mxCell id="cKL9aAtVHvwB-jlawNwa-26" value="" style="endArrow=none;html=1;rounded=0;" edge="1" parent="1" source="cKL9aAtVHvwB-jlawNwa-3" target="cKL9aAtVHvwB-jlawNwa-2">
          <mxGeometry width="50" height="50" relative="1" as="geometry">
            <mxPoint x="209" y="320" as="sourcePoint" />
            <mxPoint x="209" y="248" as="targetPoint" />
          </mxGeometry>
        </mxCell>
        <mxCell id="cKL9aAtVHvwB-jlawNwa-25" value="Cloudfront" style="text;html=1;align=center;verticalAlign=middle;whiteSpace=wrap;rounded=0;" vertex="1" parent="1">
          <mxGeometry x="260" y="194" width="60" height="30" as="geometry" />
        </mxCell>
        <mxCell id="cKL9aAtVHvwB-jlawNwa-27" value="S3 bucket" style="text;html=1;align=center;verticalAlign=middle;whiteSpace=wrap;rounded=0;" vertex="1" parent="1">
          <mxGeometry x="260" y="344" width="60" height="30" as="geometry" />
        </mxCell>
        <mxCell id="cKL9aAtVHvwB-jlawNwa-28" value="index.html static file that contains two elements: a form to submit a text and a button to call the API to get all data to be printed" style="text;html=1;align=center;verticalAlign=middle;whiteSpace=wrap;rounded=0;" vertex="1" parent="1">
          <mxGeometry x="360" y="330" width="140" height="80" as="geometry" />
        </mxCell>
        <mxCell id="cKL9aAtVHvwB-jlawNwa-29" style="edgeStyle=orthogonalEdgeStyle;rounded=0;orthogonalLoop=1;jettySize=auto;html=1;exitX=0.75;exitY=1;exitDx=0;exitDy=0;entryX=0.688;entryY=1.029;entryDx=0;entryDy=0;entryPerimeter=0;" edge="1" parent="1" source="cKL9aAtVHvwB-jlawNwa-28" target="cKL9aAtVHvwB-jlawNwa-28">
          <mxGeometry relative="1" as="geometry" />
        </mxCell>
        <mxCell id="cKL9aAtVHvwB-jlawNwa-30" value="HTTP GET /" style="text;html=1;align=center;verticalAlign=middle;resizable=0;points=[];autosize=1;strokeColor=none;fillColor=none;" vertex="1" parent="1">
          <mxGeometry x="298" y="565" width="90" height="30" as="geometry" />
        </mxCell>
        <mxCell id="cKL9aAtVHvwB-jlawNwa-31" value="HTTP POST /" style="text;html=1;align=center;verticalAlign=middle;resizable=0;points=[];autosize=1;strokeColor=none;fillColor=none;" vertex="1" parent="1">
          <mxGeometry x="65" y="555" width="100" height="30" as="geometry" />
        </mxCell>
        <mxCell id="cKL9aAtVHvwB-jlawNwa-32" value="&lt;span style=&quot;text-wrap-mode: wrap;&quot;&gt;Function to write received POST data to DynamoDB&amp;nbsp;&lt;/span&gt;" style="text;html=1;align=center;verticalAlign=middle;resizable=0;points=[];autosize=1;strokeColor=none;fillColor=none;" vertex="1" parent="1">
          <mxGeometry x="-80" y="654" width="300" height="30" as="geometry" />
        </mxCell>
        <mxCell id="cKL9aAtVHvwB-jlawNwa-33" value="&lt;span style=&quot;text-wrap-mode: wrap;&quot;&gt;Function to read and return all DyanmoDB items&lt;/span&gt;" style="text;html=1;align=center;verticalAlign=middle;resizable=0;points=[];autosize=1;strokeColor=none;fillColor=none;" vertex="1" parent="1">
          <mxGeometry x="320" y="654" width="280" height="30" as="geometry" />
        </mxCell>
        <mxCell id="cKL9aAtVHvwB-jlawNwa-34" value="DynamoDB" style="text;html=1;align=center;verticalAlign=middle;whiteSpace=wrap;rounded=0;" vertex="1" parent="1">
          <mxGeometry x="220" y="858" width="60" height="30" as="geometry" />
        </mxCell>
      </root>
    </mxGraphModel>
  </diagram>
</mxfile>
